<?xml version="1.0" standalone="no"?>
<!DOCTYPE svg PUBLIC "-//W3C//DTD SVG 20010904//EN"
 "http://www.w3.org/TR/2001/REC-SVG-20010904/DTD/svg10.dtd">
<svg version="1.0" xmlns="http://www.w3.org/2000/svg"
 width="512.000000pt" height="512.000000pt" viewBox="0 0 512.000000 512.000000"
 preserveAspectRatio="xMidYMid meet">

<g transform="translate(0.000000,512.000000) scale(0.100000,-0.100000)"
fill="#000000" stroke="none">
<path d="M2319 4540 c-378 -48 -741 -200 -1028 -430 -396 -319 -643 -730 -741
-1235 -27 -141 -38 -424 -21 -580 51 -463 243 -872 565 -1204 168 -172 347
-303 554 -406 145 -71 238 -107 294 -113 42 -4 50 -1 78 26 l30 30 0 212 0
212 -22 -7 c-13 -3 -82 -9 -153 -12 -153 -6 -217 4 -313 52 -98 50 -150 108
-222 252 -65 131 -114 191 -222 270 -92 68 -76 108 39 101 118 -6 223 -77 310
-209 99 -151 203 -213 358 -214 115 0 235 35 235 69 1 39 48 155 83 205 l35
49 -79 12 c-448 65 -705 274 -805 655 -25 91 -27 117 -28 300 -1 183 1 206 22
275 28 88 89 207 139 268 l36 44 -17 68 c-23 98 -21 255 5 361 30 117 31 119
87 119 100 0 268 -63 426 -160 l83 -51 129 28 c122 26 143 28 384 28 240 0
262 -2 383 -28 l128 -27 83 50 c169 102 340 164 433 158 l47 -3 25 -75 c23
-67 25 -91 25 -230 0 -118 -4 -165 -16 -195 -15 -40 -15 -40 16 -77 117 -136
176 -315 176 -530 0 -340 -104 -606 -299 -763 -146 -117 -304 -177 -583 -220
-43 -7 -46 -14 -17 -41 35 -32 81 -134 95 -214 9 -52 13 -174 14 -403 l0 -329
30 -30 c28 -27 36 -30 78 -26 56 6 149 42 294 113 469 232 836 647 1013 1145
120 335 148 745 75 1093 -80 381 -263 726 -534 1006 -307 315 -656 503 -1101
591 -88 18 -154 23 -325 25 -118 2 -245 0 -281 -5z"/>
<path d="M1935 3008 c-224 -43 -386 -272 -348 -494 33 -188 178 -333 366 -365
207 -35 423 102 482 306 19 66 105 93 206 65 31 -9 38 -16 43 -44 21 -109 125
-233 243 -289 64 -30 74 -32 183 -32 110 0 118 1 183 33 88 43 166 121 209
209 32 65 33 73 33 183 0 109 -2 119 -32 183 -84 177 -275 281 -458 250 -136
-23 -264 -112 -319 -221 -31 -62 -56 -152 -56 -205 0 -38 0 -39 -32 -31 -46 9
-128 7 -159 -5 l-27 -10 -4 78 c-11 193 -165 359 -364 391 -68 11 -81 11 -149
-2z m196 -44 c112 -33 199 -109 253 -223 28 -60 31 -75 31 -161 0 -86 -3 -101
-31 -161 -77 -162 -219 -247 -394 -237 -145 8 -270 93 -333 226 -30 62 -32 75
-32 172 0 93 3 112 27 162 36 76 72 121 135 165 102 70 227 91 344 57z m1141
-16 c203 -94 293 -334 199 -534 -99 -212 -365 -296 -566 -179 -60 36 -132 115
-163 183 -24 51 -27 69 -27 167 0 99 3 115 27 165 51 104 126 172 231 211 78
29 222 23 299 -13z"/>
<path d="M2402 2175 c-23 -13 -72 -49 -107 -79 -85 -72 -124 -84 -204 -64 -35
9 -58 11 -54 6 13 -22 173 -88 231 -96 95 -13 211 17 269 70 l22 20 35 -27
c72 -55 209 -79 301 -54 49 14 183 78 192 92 4 7 -1 8 -13 3 -29 -12 -129 -19
-158 -12 -14 3 -51 29 -82 56 -93 82 -142 110 -188 110 -23 0 -52 -7 -64 -16
-20 -14 -24 -14 -44 0 -32 23 -87 19 -136 -9z"/>
</g>
</svg>
