<?xml version="1.0" standalone="no"?>
<!DOCTYPE svg PUBLIC "-//W3C//DTD SVG 20010904//EN"
 "http://www.w3.org/TR/2001/REC-SVG-20010904/DTD/svg10.dtd">
<svg version="1.0" xmlns="http://www.w3.org/2000/svg"
 width="2048.000000pt" height="2048.000000pt" viewBox="0 0 2048.000000 2048.000000"
 preserveAspectRatio="xMidYMid meet">
<metadata>
Created by potrace 1.14, written by Peter Selinger 2001-2017
</metadata>
<g transform="translate(0.000000,2048.000000) scale(0.100000,-0.100000)"
fill="#000000" stroke="none">
<path d="M9966 18762 c-3 -5 -26 -8 -51 -7 -26 1 -45 -3 -45 -9 0 -7 -3 -8 -8
-1 -8 11 -52 15 -52 5 0 -3 -26 -6 -57 -5 -32 1 -64 -3 -70 -8 -9 -6 -13 -6
-13 2 0 7 -5 9 -12 5 -7 -4 -39 -9 -73 -10 -33 -1 -60 -3 -60 -4 0 -1 -17 -3
-37 -4 -20 0 -40 -4 -43 -8 -4 -4 -16 -3 -26 2 -10 6 -20 6 -23 1 -3 -5 -22
-8 -41 -7 -19 1 -35 -2 -35 -5 0 -4 -9 -5 -19 -2 -10 3 -28 0 -38 -6 -14 -7
-23 -7 -31 1 -7 7 -12 8 -12 2 0 -5 -15 -10 -32 -11 -62 -4 -123 -11 -123 -13
0 -2 -16 -4 -35 -5 -19 -2 -35 -4 -35 -5 0 -1 -13 -4 -30 -6 -16 -2 -46 -7
-65 -11 -19 -3 -39 -7 -45 -8 -5 -1 -12 -3 -15 -4 -6 -3 -68 -10 -95 -11 -10
-1 -26 -6 -34 -13 -12 -10 -13 -9 -6 3 7 11 2 10 -19 -4 -16 -10 -25 -13 -21
-6 10 16 -37 2 -47 -14 -5 -7 -8 -7 -8 3 0 9 -4 10 -12 4 -7 -5 -26 -10 -43
-12 -16 -2 -38 -7 -47 -12 -12 -7 -18 -6 -18 2 0 8 -4 9 -13 0 -8 -6 -17 -8
-20 -4 -4 3 -7 1 -7 -5 0 -6 -6 -9 -14 -6 -8 3 -17 0 -21 -6 -6 -9 -10 -9 -16
1 -7 11 -9 11 -9 1 0 -7 -4 -11 -9 -7 -5 3 -12 1 -15 -4 -3 -5 -15 -7 -25 -4
-10 3 -22 0 -26 -7 -5 -8 -11 -8 -21 1 -12 10 -15 10 -12 -1 2 -10 -6 -14 -24
-14 -16 1 -28 -3 -28 -8 0 -5 -4 -7 -9 -3 -5 3 -27 -1 -49 -8 -21 -8 -46 -13
-55 -11 -10 1 -17 -3 -17 -9 0 -5 -3 -7 -7 -4 -3 4 -12 2 -20 -4 -10 -9 -13
-8 -13 2 0 11 -2 11 -10 -1 -5 -8 -12 -11 -16 -8 -3 4 -13 0 -22 -8 -12 -13
-16 -13 -23 -2 -7 10 -9 10 -9 -1 0 -8 -3 -12 -6 -8 -4 3 -21 0 -39 -8 -19 -7
-36 -11 -39 -7 -3 3 -6 1 -6 -5 0 -6 -8 -10 -17 -10 -33 0 -83 -15 -83 -26 0
-6 -3 -8 -6 -5 -7 7 -144 -29 -160 -43 -6 -5 -14 -6 -17 -2 -4 3 -12 1 -19 -4
-13 -10 -72 -27 -74 -21 0 2 -8 -3 -17 -11 -10 -7 -17 -10 -17 -7 0 4 -10 1
-22 -6 -13 -6 -32 -13 -43 -15 -11 -2 -22 -8 -23 -13 -2 -6 -8 -7 -13 -4 -6 3
-16 1 -23 -5 -8 -7 -18 -11 -22 -9 -5 1 -19 -3 -30 -10 -12 -6 -24 -8 -28 -5
-3 3 -6 1 -6 -6 0 -7 -3 -10 -8 -8 -4 3 -24 -3 -45 -13 -20 -10 -34 -13 -30
-7 4 7 -1 5 -11 -3 -10 -8 -27 -16 -39 -17 -12 -2 -25 -9 -29 -16 -4 -6 -8 -8
-8 -3 0 5 -6 4 -12 -2 -7 -6 -15 -10 -18 -10 -6 -1 -58 -19 -85 -31 -11 -5
-41 -18 -67 -30 -26 -12 -50 -21 -52 -21 -2 0 -26 -10 -53 -22 -26 -12 -51
-22 -55 -22 -3 -1 -10 -4 -14 -8 -4 -5 -15 -8 -25 -8 -9 0 -19 -5 -21 -10 -2
-6 -14 -12 -27 -15 -13 -2 -30 -12 -38 -22 -8 -10 -12 -12 -8 -5 3 6 1 12 -4
12 -6 0 -11 -5 -11 -11 0 -6 -7 -8 -16 -5 -8 3 -12 2 -9 -4 6 -9 -8 -14 -27
-11 -5 0 -8 -3 -8 -8 0 -8 -32 -22 -55 -25 -5 -1 -16 -7 -23 -14 -8 -7 -18
-10 -23 -7 -5 4 -9 1 -9 -5 0 -7 -7 -9 -16 -6 -8 3 -12 2 -9 -4 3 -6 -1 -10
-9 -10 -9 0 -16 -4 -16 -10 0 -5 -5 -10 -11 -10 -19 0 -99 -40 -99 -50 0 -5
-7 -7 -15 -4 -8 4 -17 -1 -21 -9 -3 -9 -11 -14 -18 -11 -7 3 -23 -4 -36 -16
-13 -11 -31 -20 -42 -20 -10 0 -18 -5 -18 -11 0 -6 -7 -8 -16 -5 -8 3 -13 2
-9 -3 5 -9 -83 -58 -97 -53 -5 1 -8 -5 -8 -13 0 -9 -6 -12 -17 -8 -11 4 -14 3
-9 -5 4 -7 1 -12 -9 -12 -9 0 -23 -7 -32 -15 -8 -8 -19 -13 -24 -10 -5 4 -9 1
-9 -5 0 -6 -4 -8 -10 -5 -5 3 -10 1 -10 -4 0 -6 -6 -11 -13 -11 -8 0 -22 -9
-32 -20 -9 -10 -20 -19 -24 -18 -18 2 -33 -3 -27 -9 7 -7 -73 -49 -86 -45 -5
1 -7 -3 -5 -10 1 -7 -2 -12 -8 -13 -16 -1 -75 -38 -75 -47 0 -4 -6 -8 -13 -8
-7 0 -31 -13 -53 -30 -21 -16 -44 -30 -51 -30 -6 0 -13 -4 -15 -8 -5 -12 -82
-57 -91 -54 -5 1 -6 -2 -3 -7 3 -5 -2 -15 -11 -22 -14 -12 -16 -12 -8 0 4 7
-6 3 -24 -10 -17 -12 -31 -26 -31 -31 0 -4 -7 -8 -15 -8 -9 0 -18 -7 -22 -16
-3 -8 -11 -13 -18 -10 -8 3 -16 -2 -19 -10 -3 -8 -12 -14 -21 -14 -8 0 -15 -7
-15 -15 0 -8 -4 -14 -8 -12 -5 1 -22 -8 -38 -20 -16 -12 -32 -21 -36 -20 -3 1
-16 -11 -28 -26 -12 -15 -25 -26 -28 -23 -3 3 -12 -3 -21 -12 -9 -10 -23 -23
-32 -28 -20 -11 -87 -63 -111 -86 -10 -10 -18 -15 -18 -11 0 3 -8 -4 -19 -15
-10 -12 -22 -22 -26 -22 -4 0 -18 -11 -31 -26 -13 -14 -24 -22 -24 -18 0 4 -9
-3 -20 -16 -11 -13 -20 -20 -20 -17 0 4 -16 -9 -35 -29 -19 -19 -35 -32 -35
-29 0 4 -13 -9 -30 -27 -16 -18 -30 -29 -30 -25 0 5 -11 -3 -24 -17 -13 -15
-28 -26 -35 -26 -6 0 -11 -6 -11 -13 0 -7 -18 -24 -39 -37 -21 -14 -37 -29
-34 -33 3 -5 -4 -11 -16 -14 -12 -3 -21 -12 -21 -19 0 -8 -4 -14 -9 -14 -6 0
-31 -20 -58 -45 -26 -25 -51 -45 -56 -45 -4 0 -5 -4 -2 -10 3 -5 2 -10 -3 -10
-13 0 -67 -52 -65 -62 2 -4 -1 -8 -7 -8 -5 0 -52 -43 -105 -95 -52 -52 -100
-95 -106 -95 -5 0 -8 -4 -4 -9 3 -5 -6 -18 -20 -29 -13 -11 -21 -22 -18 -26 3
-3 -1 -6 -10 -6 -9 0 -17 -7 -17 -16 0 -8 -4 -12 -10 -9 -5 3 -10 3 -10 -2 0
-15 -77 -93 -84 -85 -4 4 -7 2 -6 -3 5 -22 -1 -34 -20 -40 -11 -4 -18 -11 -15
-16 4 -5 -1 -9 -10 -9 -9 0 -14 -4 -10 -9 3 -6 -3 -15 -14 -20 -11 -6 -23 -20
-26 -31 -4 -11 -11 -18 -16 -15 -5 4 -9 -1 -9 -9 0 -9 -11 -23 -25 -32 -14 -9
-24 -19 -22 -21 4 -4 -9 -18 -94 -110 -16 -17 -29 -36 -29 -42 0 -6 -9 -15
-21 -21 -11 -7 -19 -14 -16 -16 4 -5 -16 -33 -55 -75 -10 -10 -18 -24 -18 -30
0 -5 -4 -7 -10 -4 -5 3 -10 -1 -10 -10 0 -9 -5 -13 -10 -10 -6 4 -10 3 -9 -2
3 -17 -14 -53 -22 -47 -5 3 -9 1 -9 -3 0 -10 -22 -40 -58 -80 -12 -14 -22 -29
-22 -32 0 -6 -36 -52 -67 -85 -13 -13 -14 -17 -3 -12 8 4 4 -2 -10 -13 -14
-11 -20 -21 -15 -21 6 0 6 -3 0 -8 -6 -4 -28 -32 -50 -62 -22 -30 -44 -58 -50
-62 -6 -5 -6 -8 0 -8 6 0 2 -5 -7 -11 -10 -5 -18 -15 -18 -20 0 -12 -59 -101
-73 -110 -5 -4 -6 -12 -3 -18 4 -6 1 -11 -7 -11 -8 0 -17 -8 -21 -17 -10 -30
-43 -83 -48 -77 -3 3 -8 -7 -12 -21 -4 -14 -11 -25 -17 -25 -6 0 -7 -4 -4 -10
3 -5 1 -10 -5 -10 -6 0 -8 -4 -5 -10 3 -5 2 -10 -3 -10 -5 0 -14 -10 -20 -22
-7 -13 -23 -41 -37 -63 -14 -22 -28 -47 -32 -55 -4 -8 -10 -17 -14 -20 -4 -3
-9 -14 -11 -25 -3 -22 -20 -45 -28 -40 -3 2 -7 -6 -7 -18 -1 -11 -9 -25 -18
-29 -8 -5 -13 -13 -10 -19 4 -5 1 -9 -4 -9 -6 0 -11 -3 -10 -7 3 -18 -14 -52
-22 -47 -5 3 -9 -2 -9 -11 0 -9 -9 -30 -21 -46 -11 -16 -18 -33 -15 -38 4 -5
-4 -18 -17 -28 -13 -10 -22 -23 -20 -29 2 -7 -3 -18 -11 -27 -8 -8 -12 -17 -9
-21 4 -3 1 -6 -6 -6 -7 0 -9 -4 -6 -10 3 -5 1 -10 -5 -10 -6 0 -8 -4 -5 -10 3
-5 1 -10 -5 -10 -6 0 -8 -4 -5 -10 3 -5 1 -10 -5 -10 -6 0 -9 -4 -6 -8 3 -5
-3 -18 -14 -29 -10 -12 -16 -24 -13 -27 4 -3 1 -6 -5 -6 -6 0 -9 -7 -6 -15 4
-8 2 -15 -4 -15 -8 0 -14 -14 -23 -50 0 -3 -5 -11 -11 -17 -6 -7 -7 -13 -2
-13 5 0 4 -4 -3 -8 -12 -8 -57 -102 -55 -114 1 -5 -2 -8 -8 -8 -5 0 -10 -7
-10 -15 0 -8 -5 -15 -11 -15 -5 0 -8 -4 -5 -9 3 -4 -3 -27 -14 -49 -11 -23
-20 -46 -20 -52 0 -5 -5 -10 -10 -10 -6 0 -9 -3 -8 -7 4 -15 -13 -53 -23 -53
-6 0 -7 -5 -4 -10 4 -6 -1 -22 -9 -35 -9 -14 -14 -25 -11 -25 3 0 -2 -15 -12
-32 -9 -18 -18 -36 -19 -40 -1 -5 -3 -11 -4 -15 -1 -5 -3 -12 -4 -18 0 -5 -8
-21 -16 -35 -8 -14 -15 -34 -17 -44 -2 -11 -10 -27 -18 -36 -8 -9 -12 -20 -9
-23 4 -4 1 -13 -5 -21 -7 -8 -10 -19 -7 -25 3 -5 1 -11 -4 -13 -6 -2 -12 -13
-13 -25 0 -13 -7 -25 -14 -27 -7 -3 -10 -12 -7 -21 4 -9 1 -15 -7 -15 -12 0
-12 -2 -1 -9 11 -7 10 -9 -3 -15 -9 -3 -13 -11 -9 -17 3 -6 0 -15 -7 -20 -12
-7 -11 -9 1 -9 12 0 12 -2 2 -9 -7 -4 -14 -14 -15 -22 -2 -8 -6 -20 -10 -26
-5 -7 -6 -13 -2 -13 3 0 0 -10 -7 -22 -7 -13 -13 -27 -13 -33 -1 -13 -14 -45
-26 -68 -5 -10 -7 -22 -4 -27 4 -6 2 -10 -3 -10 -5 0 -9 -6 -10 -12 -1 -15
-10 -52 -12 -55 -2 -2 -4 -7 -5 -13 -1 -5 -3 -11 -5 -12 -2 -3 -5 -17 -14 -55
-2 -12 -10 -31 -16 -42 -6 -12 -9 -21 -6 -21 2 0 -5 -28 -15 -62 -22 -68 -31
-106 -32 -125 0 -7 -4 -13 -9 -13 -5 0 -6 -4 -3 -10 3 -5 2 -10 -3 -10 -5 0
-8 -10 -7 -22 1 -13 0 -27 -4 -33 -3 -5 -7 -16 -8 -22 -2 -7 -5 -21 -7 -30 -3
-10 -5 -28 -5 -41 -1 -13 -5 -21 -10 -18 -5 3 -9 -4 -9 -17 0 -28 -7 -67 -17
-90 -4 -10 -5 -21 -2 -24 4 -3 1 -15 -5 -27 -6 -11 -13 -30 -15 -41 -5 -38 -9
-50 -17 -64 -7 -10 -5 -12 3 -6 10 6 11 3 2 -14 -7 -11 -13 -42 -15 -67 -2
-26 -9 -49 -14 -53 -7 -4 -7 -12 -2 -20 5 -9 3 -23 -4 -35 -7 -12 -12 -30 -12
-41 1 -11 -3 -23 -9 -27 -6 -5 -5 -8 3 -8 10 0 10 -5 1 -22 -7 -13 -14 -45
-16 -72 -2 -28 -9 -57 -16 -65 -10 -12 -9 -13 3 -6 12 7 13 6 4 -6 -6 -8 -10
-24 -9 -37 1 -13 -2 -25 -7 -28 -4 -3 -6 -10 -2 -15 3 -5 0 -17 -8 -26 -11
-14 -11 -16 1 -8 10 6 12 4 6 -6 -5 -7 -10 -27 -11 -44 -1 -16 -2 -31 -4 -32
-1 -2 -2 -15 -3 -30 0 -16 -5 -31 -11 -35 -7 -5 -7 -8 2 -8 7 0 10 -5 7 -11
-8 -12 -13 -42 -19 -112 -2 -27 -6 -51 -10 -54 -3 -3 -1 -14 5 -24 7 -14 6
-19 -2 -19 -6 0 -9 -9 -6 -20 3 -11 2 -22 -1 -24 -4 -2 -7 -24 -6 -48 0 -23
-4 -46 -10 -50 -7 -5 -6 -8 3 -8 11 0 11 -3 1 -15 -9 -11 -9 -15 -1 -15 7 0 9
-5 4 -12 -8 -14 -11 -44 -16 -168 -1 -41 -6 -80 -10 -87 -4 -6 -1 -13 5 -16
10 -3 10 -7 1 -17 -7 -8 -9 -20 -3 -35 5 -13 6 -26 3 -29 -4 -3 -7 -57 -8
-119 -1 -63 -5 -119 -9 -125 -3 -5 0 -13 6 -15 10 -4 9 -8 -2 -16 -12 -8 -12
-11 -1 -11 11 0 11 -3 1 -15 -7 -8 -9 -15 -4 -15 5 0 9 -81 9 -180 0 -99 2
-180 5 -180 10 0 5 -85 -5 -92 -6 -5 -6 -8 1 -8 7 0 11 -15 10 -40 -1 -22 2
-40 7 -40 4 0 5 -6 0 -12 -4 -7 -6 -26 -4 -43 2 -16 4 -41 5 -55 1 -14 5 -31
9 -37 5 -8 4 -13 -3 -13 -8 0 -8 -6 0 -20 8 -15 8 -20 -2 -20 -8 0 -9 -3 -3
-8 6 -4 11 -18 12 -32 0 -14 4 -52 7 -85 13 -129 19 -191 19 -212 1 -13 4 -23
8 -23 3 0 6 -8 6 -17 0 -75 4 -104 14 -97 8 4 8 1 1 -13 -6 -11 -7 -25 -2 -32
4 -8 7 -24 5 -37 -1 -13 1 -24 6 -24 5 0 6 -6 3 -14 -3 -8 0 -17 6 -21 8 -5 8
-11 -1 -21 -7 -9 -7 -14 -1 -14 5 0 9 -14 8 -31 -1 -16 1 -32 5 -35 4 -2 6
-13 4 -24 -2 -11 -1 -20 4 -20 4 0 8 -11 9 -25 1 -14 2 -36 3 -50 1 -15 6 -22
13 -18 6 4 5 0 -2 -9 -10 -13 -10 -18 0 -29 7 -8 13 -29 13 -47 -1 -19 3 -36
8 -39 4 -2 2 -12 -5 -21 -10 -12 -10 -14 0 -8 11 6 15 -10 11 -40 0 -4 5 -11
13 -15 11 -7 11 -9 -1 -9 -11 0 -11 -3 -1 -15 6 -8 9 -19 5 -25 -3 -5 -2 -10
4 -10 5 0 8 -8 6 -17 -1 -10 1 -25 6 -34 5 -9 10 -31 11 -48 1 -17 5 -31 8
-31 3 0 6 -8 7 -17 1 -10 4 -31 8 -48 3 -16 7 -38 8 -47 1 -10 5 -18 10 -18 4
0 5 -4 2 -10 -3 -5 -3 -16 2 -22 8 -13 11 -27 17 -63 2 -11 4 -20 5 -20 2 0 4
-11 7 -24 2 -14 11 -44 19 -68 8 -23 17 -57 20 -75 3 -18 11 -38 17 -45 6 -7
8 -13 4 -13 -3 0 -1 -12 5 -28 6 -15 13 -38 15 -52 8 -42 15 -60 24 -60 4 0 6
-9 3 -20 -3 -12 0 -20 6 -20 7 0 9 -5 6 -10 -4 -6 1 -22 10 -37 12 -17 13 -23
4 -18 -8 5 -5 -1 5 -13 14 -16 15 -22 6 -22 -9 0 -7 -5 6 -16 10 -8 13 -12 6
-9 -11 6 -11 3 -1 -16 30 -58 31 -61 17 -54 -7 3 -6 1 3 -7 9 -7 14 -19 12
-25 -3 -7 -1 -13 4 -13 8 0 13 -18 16 -62 1 -9 5 -14 9 -12 4 3 8 -4 8 -15 0
-12 4 -21 8 -21 4 0 9 -9 10 -20 4 -43 6 -50 14 -50 4 0 8 -9 8 -20 0 -11 5
-20 11 -20 5 0 8 -4 5 -8 -3 -5 2 -21 9 -36 8 -16 12 -32 9 -37 -3 -5 1 -12 9
-15 7 -2 14 -11 15 -19 1 -8 3 -22 4 -30 1 -8 5 -15 10 -15 4 0 8 -8 8 -18 0
-10 5 -23 12 -30 7 -7 9 -12 4 -12 -4 0 -1 -12 7 -27 8 -16 21 -41 28 -58 8
-16 18 -33 24 -37 6 -5 5 -8 -3 -8 -10 0 -10 -4 2 -16 15 -14 20 -28 14 -38
-2 -2 6 -14 17 -27 13 -14 14 -20 5 -15 -8 4 -7 1 4 -8 10 -8 15 -19 12 -24
-3 -6 -2 -12 3 -14 5 -1 11 -12 13 -23 1 -11 6 -22 9 -25 9 -7 89 -180 89
-191 0 -5 5 -9 10 -9 6 0 10 -7 10 -16 0 -9 9 -28 20 -44 11 -15 17 -29 14
-32 -2 -3 2 -11 11 -18 8 -7 15 -21 15 -31 0 -11 5 -19 10 -19 6 0 10 -7 10
-15 0 -8 5 -15 12 -15 6 0 8 -3 5 -6 -3 -4 -1 -16 5 -28 7 -11 13 -25 13 -31
1 -5 6 -9 13 -8 7 2 11 0 10 -5 -4 -12 31 -92 41 -92 5 0 12 -7 15 -16 3 -9 2
-12 -5 -8 -6 3 -5 -3 3 -15 7 -12 16 -21 21 -21 4 0 5 -4 2 -10 -3 -5 -1 -10
5 -10 6 0 8 -4 5 -10 -3 -5 -3 -10 2 -10 4 0 19 -21 33 -47 13 -27 27 -50 31
-53 3 -3 12 -20 20 -37 8 -18 17 -33 21 -33 5 0 8 -7 8 -15 0 -8 5 -15 11 -15
5 0 7 -4 4 -10 -3 -5 -2 -10 3 -10 5 0 17 -18 28 -40 10 -22 22 -40 27 -40 4
0 7 -6 7 -13 0 -7 8 -22 18 -33 9 -10 23 -31 31 -46 8 -15 22 -36 31 -45 9
-10 16 -22 17 -27 0 -10 23 -44 45 -67 9 -9 14 -19 12 -22 -2 -2 2 -10 11 -17
8 -7 15 -18 15 -26 0 -7 9 -18 20 -24 11 -6 18 -14 16 -19 -3 -4 5 -19 17 -33
12 -14 29 -36 37 -48 8 -12 23 -33 33 -45 9 -13 17 -28 17 -34 0 -6 4 -11 9
-11 5 0 20 -17 32 -37 13 -21 35 -50 50 -65 15 -14 25 -29 22 -31 -2 -3 4 -14
14 -25 27 -29 57 -67 55 -69 -2 -3 7 -13 53 -64 8 -9 15 -21 15 -27 0 -7 6
-12 14 -12 8 0 17 -9 21 -19 3 -11 23 -39 45 -62 21 -24 36 -48 33 -53 -3 -6
-3 -8 1 -4 8 7 39 -22 66 -62 8 -13 30 -38 48 -56 21 -20 31 -38 26 -45 -4 -7
-3 -10 3 -6 5 3 32 -19 59 -50 27 -30 74 -82 105 -114 31 -33 59 -66 63 -74 3
-8 13 -15 22 -15 10 0 14 -3 11 -6 -4 -4 10 -22 31 -41 20 -19 36 -39 35 -44
-2 -5 2 -9 8 -9 14 0 225 -212 221 -223 -1 -5 1 -6 6 -3 5 3 32 -17 60 -44 27
-28 56 -50 64 -50 10 0 10 -2 1 -8 -8 -5 -2 -12 18 -21 16 -7 27 -17 23 -22
-3 -5 0 -9 7 -9 6 0 24 -12 38 -27 15 -16 46 -43 69 -61 23 -19 40 -38 36 -43
-3 -5 2 -9 12 -9 9 0 30 -13 45 -30 16 -16 29 -28 29 -25 0 2 12 -7 26 -20 15
-14 31 -22 37 -18 5 3 7 1 3 -5 -3 -6 8 -21 26 -33 41 -29 53 -39 81 -64 12
-11 38 -31 57 -45 42 -29 55 -40 78 -61 9 -8 39 -31 67 -50 49 -34 69 -49 107
-81 11 -10 29 -20 39 -23 11 -4 19 -11 19 -16 0 -5 5 -9 10 -9 6 0 20 -9 32
-20 12 -11 28 -20 35 -20 7 0 13 -7 13 -15 0 -8 3 -15 8 -14 4 1 18 -2 30 -6
18 -6 20 -10 10 -16 -9 -6 -5 -9 13 -9 16 0 33 -10 45 -25 13 -17 20 -21 26
-12 5 8 8 7 8 -5 0 -10 7 -18 15 -18 8 0 15 -4 15 -10 0 -5 6 -10 14 -10 7 0
19 -7 26 -15 7 -8 24 -21 39 -28 44 -22 74 -41 95 -60 18 -16 32 -21 39 -14 1
1 16 -10 32 -25 16 -15 32 -25 37 -22 4 3 8 1 8 -4 0 -8 55 -38 55 -30 0 1 11
-7 25 -19 13 -13 30 -23 37 -23 7 0 13 -4 13 -8 0 -4 16 -14 35 -21 19 -7 35
-16 35 -20 0 -4 16 -13 35 -20 19 -7 35 -17 35 -22 0 -5 9 -9 20 -9 11 0 20
-4 20 -8 0 -5 16 -14 35 -22 19 -8 35 -18 35 -22 0 -5 4 -7 9 -3 5 3 12 1 16
-5 4 -6 11 -7 17 -4 6 4 8 2 4 -4 -3 -6 -2 -13 4 -17 5 -3 10 0 10 7 0 8 5 6
11 -4 5 -10 18 -18 29 -18 10 0 20 -4 22 -9 2 -5 10 -11 18 -13 8 -2 18 -7 21
-11 3 -4 15 -9 27 -10 11 0 18 -5 16 -9 -3 -4 2 -8 11 -8 9 0 14 -4 10 -9 -3
-6 3 -8 14 -6 11 2 22 -3 25 -12 3 -8 12 -13 18 -11 7 3 19 -1 26 -9 8 -7 18
-11 23 -8 5 4 9 1 9 -5 0 -6 5 -8 10 -5 6 3 10 1 10 -5 0 -6 5 -8 10 -5 6 3
10 1 10 -5 0 -6 5 -8 10 -5 6 3 10 1 10 -4 0 -6 7 -11 15 -11 8 0 30 -9 50
-20 20 -11 42 -20 50 -20 8 0 15 -4 15 -10 0 -5 3 -9 8 -9 14 3 72 -23 72 -33
0 -5 4 -7 9 -3 5 3 13 0 16 -6 4 -5 13 -8 21 -5 8 3 14 1 14 -4 0 -6 6 -10 13
-10 7 0 31 -9 53 -19 21 -11 42 -17 46 -14 5 2 8 0 8 -4 0 -9 60 -37 74 -34 5
1 18 -6 29 -16 11 -10 17 -13 14 -6 -5 8 -1 8 18 0 14 -7 25 -16 25 -20 0 -5
4 -5 10 -2 5 3 20 0 32 -7 23 -12 42 -18 66 -20 6 -1 12 -5 12 -10 0 -4 9 -8
19 -8 11 0 23 -5 26 -11 4 -6 13 -8 21 -5 8 3 17 -1 20 -8 3 -8 13 -13 22 -11
9 1 23 -2 30 -8 6 -5 12 -6 12 -1 0 5 4 4 8 -3 4 -6 21 -13 37 -15 17 -2 38
-10 48 -19 10 -9 29 -15 42 -13 14 1 25 -3 25 -9 0 -5 3 -7 7 -4 3 4 12 2 20
-4 7 -6 13 -8 13 -4 0 4 7 2 15 -5 8 -6 19 -9 25 -5 5 3 10 2 10 -2 0 -5 10
-9 22 -10 11 -1 24 -6 27 -10 3 -5 13 -8 21 -8 8 1 26 -5 39 -13 19 -11 22
-11 15 -1 -6 11 -5 12 7 2 9 -7 24 -14 35 -16 10 -1 25 -6 32 -10 6 -5 16 -5
22 -2 5 3 10 2 10 -4 0 -5 9 -8 20 -6 11 2 20 0 20 -4 0 -5 28 -14 63 -21 34
-7 68 -18 76 -24 8 -6 16 -10 18 -8 6 6 117 -20 138 -31 11 -6 30 -10 42 -8
13 1 28 -1 35 -6 7 -4 24 -9 38 -11 14 -1 32 -5 40 -9 8 -3 18 -7 23 -8 4 -2
10 -4 15 -5 4 -1 11 -2 16 -1 4 1 22 -3 40 -8 17 -6 46 -12 64 -13 17 -1 32
-7 32 -12 0 -5 3 -6 6 -3 4 3 15 2 25 -4 14 -7 19 -6 19 3 0 9 3 10 8 2 4 -6
15 -10 25 -8 9 1 17 -1 17 -4 0 -4 15 -8 33 -9 43 -4 60 -7 75 -16 7 -5 12 -3
12 5 0 10 2 10 9 0 4 -8 11 -13 15 -13 3 1 7 1 9 0 12 -4 61 -10 99 -12 27 -1
48 -6 48 -10 0 -5 5 -5 11 -1 6 3 15 0 20 -7 7 -12 9 -12 9 0 0 11 3 11 15 1
12 -10 15 -10 15 1 0 12 2 12 9 0 5 -7 13 -11 19 -7 6 3 13 3 15 -1 3 -5 24
-8 46 -7 23 0 41 -2 41 -6 0 -4 17 -7 38 -8 91 -3 102 -5 102 -14 0 -5 9 -4
19 2 11 5 22 6 25 2 3 -5 27 -10 53 -11 90 -5 109 -7 121 -15 7 -4 12 -2 12 6
0 8 3 9 8 3 4 -6 23 -11 43 -11 19 0 41 -4 47 -8 7 -4 12 -3 12 2 0 6 14 7 33
3 17 -4 44 -7 60 -6 15 1 27 -2 27 -6 0 -4 14 -4 30 1 17 5 30 5 30 2 0 -4 33
-7 73 -7 39 1 78 -3 85 -8 8 -6 12 -5 12 3 0 10 3 10 15 0 8 -7 15 -9 15 -4 0
11 184 9 201 -2 7 -4 14 -3 16 2 2 5 89 9 206 8 111 -1 207 3 214 8 7 5 14 5
18 -2 4 -7 12 -7 26 0 14 8 19 7 19 -1 0 -9 3 -9 14 0 10 8 16 9 21 1 3 -6 12
-7 18 -3 7 4 32 8 57 10 111 5 176 11 191 18 10 3 20 2 24 -4 4 -7 13 -8 23
-3 9 5 33 10 52 11 19 1 46 3 60 4 14 1 28 7 32 12 5 6 8 5 8 -3 0 -9 5 -10
18 -3 10 5 30 8 45 7 15 -2 27 0 27 4 0 5 9 6 19 3 10 -3 29 1 41 7 15 8 20 8
16 1 -8 -12 6 -15 18 -4 7 7 26 10 89 14 15 1 27 6 27 12 0 5 6 5 13 -2 8 -6
17 -7 21 -3 7 7 16 8 72 11 14 0 23 5 20 9 -2 4 4 8 15 8 10 0 19 -5 19 -10 0
-6 5 -5 12 2 7 7 26 12 43 12 17 0 37 6 44 13 11 10 12 9 6 -3 -7 -12 -6 -13
6 -4 8 6 24 10 37 9 13 -1 25 2 28 6 2 5 11 6 19 2 8 -3 15 -1 15 3 0 9 10 10
80 15 17 2 30 5 30 8 0 3 19 7 42 9 23 1 47 6 52 11 6 5 18 8 26 8 8 1 29 4
45 8 17 4 37 8 45 9 8 1 24 5 35 9 11 3 31 8 45 11 14 2 45 9 70 16 25 7 54
14 65 16 11 2 50 12 87 23 36 11 69 17 72 13 3 -3 6 -1 6 4 0 5 11 11 26 12
14 1 33 6 43 12 10 5 21 6 25 3 3 -3 6 -1 6 6 0 7 5 9 10 6 6 -4 18 -1 27 7
14 11 15 11 9 0 -6 -11 -4 -11 10 -3 27 14 55 23 84 28 13 2 28 10 32 16 4 6
10 8 14 4 4 -4 18 0 32 9 17 11 22 12 16 3 -5 -9 2 -8 19 4 15 9 27 15 27 11
0 -4 8 0 17 7 15 12 16 12 8 -1 -5 -9 1 -7 14 5 13 11 24 19 25 17 3 -9 96 22
96 32 0 6 5 4 10 -4 7 -12 10 -12 10 -1 0 8 6 11 16 7 8 -3 12 -2 9 4 -3 6 5
10 19 10 14 0 26 4 26 8 0 5 6 9 14 9 14 0 84 26 191 70 33 14 68 27 79 29 10
2 24 8 30 14 7 5 16 7 19 3 4 -3 7 0 7 7 0 7 3 10 7 7 3 -4 13 -1 21 6 13 10
15 9 8 -3 -4 -8 0 -6 8 4 9 11 16 16 16 12 0 -5 6 -3 13 3 8 6 17 8 20 4 4 -3
7 -1 7 6 0 7 5 9 10 6 6 -3 10 -1 10 5 0 6 4 9 9 5 5 -3 15 0 23 7 7 7 22 14
33 16 11 2 30 10 43 18 12 8 22 12 22 9 0 -2 16 4 36 15 19 11 39 18 45 15 5
-4 9 -1 9 5 0 6 12 15 27 21 73 27 182 83 177 90 -2 4 5 6 16 4 11 -2 20 0 20
6 0 5 3 8 8 7 4 -1 31 10 60 25 28 15 52 25 52 21 0 -3 14 6 31 20 17 14 35
24 40 20 5 -3 9 -1 9 4 0 5 10 12 23 16 12 3 22 5 22 4 0 -1 9 6 20 15 11 9
23 16 26 15 3 -2 13 5 23 15 10 9 21 15 26 12 4 -3 11 2 14 11 3 8 10 12 16 9
5 -3 10 -2 10 2 0 5 22 19 50 32 28 13 50 28 50 33 0 5 5 6 10 3 6 -3 10 -1
10 4 0 6 7 11 16 11 8 0 22 7 31 15 8 8 19 13 24 10 5 -4 9 2 9 11 0 10 3 14
6 11 4 -4 19 2 34 13 16 11 33 20 39 20 6 0 11 5 11 10 0 6 6 10 14 10 8 0 16
3 18 8 4 8 50 36 91 54 15 7 27 18 27 25 0 7 7 10 15 7 8 -4 15 -1 15 5 0 6 6
11 14 11 8 0 17 7 20 16 3 8 10 12 16 9 5 -3 10 -1 10 4 0 6 6 11 14 11 8 0
17 7 20 16 3 8 10 12 16 9 5 -3 10 -1 10 4 0 6 5 11 11 11 7 0 20 10 30 22 13
14 19 17 19 7 1 -8 6 -4 13 9 7 12 15 20 18 17 3 -3 18 6 32 19 15 14 27 22
27 18 0 -4 4 -2 8 3 4 6 27 24 52 40 25 17 51 35 57 42 7 6 28 21 48 33 19 12
35 26 35 31 0 5 7 9 15 9 8 0 15 5 15 11 0 5 5 7 10 4 6 -3 10 1 10 10 0 9 5
13 10 10 6 -3 13 1 16 9 3 9 11 16 18 16 6 0 19 9 29 20 10 12 23 18 29 14 6
-4 9 -3 6 2 -6 11 28 45 36 37 3 -3 8 2 12 11 3 9 10 13 15 10 5 -3 9 0 9 6 0
6 11 15 25 22 13 6 22 14 20 18 -4 7 6 14 27 19 4 1 20 14 35 29 47 45 83 72
94 72 5 0 7 5 4 10 -3 6 -2 10 3 10 5 0 26 15 45 33 68 62 87 77 98 77 5 0 7
5 4 10 -3 6 -2 10 3 10 5 0 30 20 55 44 26 24 47 42 47 40 0 -2 8 4 19 14 10
9 18 22 17 27 -1 6 4 9 11 8 7 -2 17 6 23 17 6 11 15 18 21 15 5 -4 9 -2 9 3
0 5 18 27 40 50 22 22 40 39 40 36 0 -2 15 11 33 29 19 18 32 35 31 38 -2 3 8
12 21 19 13 7 22 17 20 21 -3 4 4 10 15 14 11 3 20 13 20 21 0 8 3 13 8 11 4
-2 15 4 25 15 9 10 15 18 12 18 -2 0 20 23 50 52 30 28 52 55 49 60 -3 4 -1 8
4 8 5 0 27 18 50 40 22 22 38 40 36 40 -3 0 22 28 55 62 33 33 58 65 55 70 -5
7 10 12 29 9 5 -1 6 3 3 8 -5 8 31 52 99 122 8 9 15 21 15 27 0 7 4 12 10 12
5 0 22 18 36 40 15 22 31 37 37 33 5 -3 7 -2 4 4 -3 5 11 30 33 54 21 24 36
47 34 51 -2 3 5 9 16 13 11 4 18 11 15 16 -4 5 -1 9 4 9 6 0 11 7 11 15 0 8 7
15 16 15 8 0 13 4 10 9 -3 5 5 20 19 32 13 13 25 29 25 34 0 6 9 17 19 25 11
7 18 17 15 22 -3 4 -1 8 3 8 5 0 19 18 33 40 14 22 28 40 32 40 5 0 8 5 8 10
0 11 11 26 41 58 9 9 20 27 23 40 4 12 12 20 17 17 5 -4 9 1 9 9 0 9 5 16 11
16 5 0 7 5 4 11 -4 6 2 17 14 25 12 8 21 22 21 30 0 8 5 14 10 14 6 0 10 7 10
15 0 8 5 15 10 15 6 0 10 7 10 15 0 7 6 18 14 22 8 4 15 10 16 13 6 31 14 49
19 45 4 -2 20 19 36 48 15 28 35 58 44 65 12 10 13 12 1 7 -10 -4 -9 -2 3 8 9
8 17 19 17 26 0 6 5 11 11 11 5 0 7 5 4 10 -3 6 1 13 9 16 9 3 13 10 10 15 -3
5 0 9 6 9 6 0 9 4 6 9 -3 5 1 14 9 21 8 7 15 19 15 26 0 8 5 14 11 14 5 0 7 5
4 10 -3 6 -3 10 2 10 4 0 17 12 27 27 11 14 14 23 7 18 -8 -4 -6 4 4 19 10 14
22 26 28 26 6 0 8 3 4 6 -8 8 21 64 33 64 5 0 7 7 4 15 -4 8 -1 15 5 15 6 0
11 6 11 14 0 8 6 21 13 28 7 7 19 28 26 45 7 18 18 30 24 26 5 -3 7 -1 4 5
-10 15 3 43 17 35 6 -4 5 1 -3 11 -12 15 -12 17 0 14 8 -2 13 4 13 14 -1 10 2
18 7 18 5 0 9 7 9 16 0 8 5 12 10 9 6 -3 10 3 10 15 0 12 7 28 15 37 8 8 13
19 10 24 -4 5 -1 9 5 9 6 0 8 5 5 10 -3 6 -2 10 3 10 8 0 21 25 26 52 0 4 7
13 14 20 6 6 12 16 12 21 0 4 13 35 29 67 16 32 27 61 23 64 -3 3 -1 6 5 6 10
0 49 88 45 103 -1 4 5 10 13 13 8 3 13 10 10 14 -3 5 -1 11 5 15 5 3 10 17 10
29 0 13 7 29 15 36 9 7 13 15 10 18 -3 3 0 11 6 19 6 7 8 13 5 13 -4 0 0 7 8
16 9 8 14 19 11 24 -3 5 -1 11 5 15 6 4 8 11 5 16 -4 5 -1 9 4 9 6 0 11 9 11
20 0 11 4 20 10 20 5 0 9 3 9 8 -1 4 0 10 1 15 1 4 4 12 5 17 1 6 4 12 5 15 1
3 3 8 5 13 1 4 8 21 15 37 7 17 14 32 15 35 8 25 18 48 26 63 5 10 7 22 4 27
-3 4 0 10 5 12 6 2 12 13 13 26 0 12 5 22 10 22 4 0 6 4 2 9 -3 5 -1 12 5 16
6 4 8 11 5 16 -4 5 -2 9 4 9 5 0 8 9 6 20 -2 11 0 20 4 20 9 0 22 31 26 60 1
9 7 25 13 37 6 11 8 23 5 27 -3 3 -1 6 5 6 6 0 9 6 6 14 -3 8 0 17 5 21 6 3 9
11 6 16 -4 5 -2 9 4 9 5 0 8 9 6 20 -2 11 1 22 6 25 5 4 7 11 4 16 -4 5 -2 9
3 9 5 0 12 15 16 32 6 33 8 39 19 68 12 32 80 276 82 295 1 11 8 19 14 17 9
-2 9 3 1 18 -7 13 -7 20 -1 20 6 0 8 7 5 15 -4 8 -2 15 3 15 5 0 9 8 9 18 1
27 8 46 19 54 6 5 5 8 -3 8 -7 0 -10 5 -7 10 4 6 12 7 18 3 8 -4 7 -1 -1 9 -8
10 -9 18 -3 22 6 4 8 13 4 21 -3 8 0 15 7 15 6 0 8 4 5 10 -3 5 -1 19 5 30 8
15 8 20 -2 20 -9 0 -10 3 -2 8 10 6 16 29 31 107 2 10 9 23 16 27 6 4 7 8 2 8
-6 0 -11 9 -11 19 0 11 4 17 8 15 7 -4 13 35 9 59 0 4 5 7 12 7 8 0 8 3 -2 9
-12 7 -12 13 -3 24 7 7 9 17 5 20 -3 4 -1 7 7 7 10 0 10 3 0 15 -9 11 -9 15
-1 15 7 0 11 8 10 18 -1 9 0 19 1 22 3 9 10 44 13 70 2 14 6 30 9 35 3 6 4 18
3 28 -2 9 2 17 8 17 7 0 5 5 -3 10 -8 5 -10 10 -4 10 6 0 10 10 9 22 -1 13 2
29 8 36 6 8 5 12 -4 12 -12 0 -12 2 0 9 8 5 11 16 8 25 -4 9 -1 16 6 16 8 0 6
4 -3 10 -10 6 -11 10 -3 10 8 0 11 11 9 30 -2 17 0 32 4 35 4 2 7 21 8 42 2
46 8 79 18 95 5 7 3 8 -6 3 -10 -6 -11 -4 -4 6 4 8 9 32 11 54 1 22 2 40 3 40
2 0 7 51 16 165 3 41 11 78 17 82 7 5 8 8 2 8 -6 0 -10 12 -9 28 1 15 3 27 4
27 1 0 3 12 5 28 2 16 -1 27 -8 27 -8 0 -8 3 -2 8 12 8 13 17 18 175 3 65 7
120 9 123 3 2 2 24 -2 49 -4 25 -4 45 -1 45 3 0 6 63 6 140 0 77 -4 140 -9
140 -5 0 -4 6 1 12 10 14 9 119 -1 136 -3 6 -2 13 3 16 6 4 6 18 1 36 -6 21
-5 30 3 30 9 0 9 2 1 8 -6 4 -11 40 -12 82 -1 41 -4 102 -7 135 -3 33 -5 71
-4 85 1 36 1 42 -5 75 -3 17 -7 58 -9 91 -3 34 -7 66 -11 73 -4 6 -1 11 6 11
8 0 9 3 3 8 -5 4 -11 25 -13 47 -5 55 -10 100 -12 100 -2 0 -12 102 -13 133
-1 12 -4 22 -8 22 -4 0 -6 18 -5 40 0 22 -2 40 -5 40 -3 0 -5 12 -3 27 1 15
-1 32 -5 38 -5 5 -7 20 -6 33 1 12 -2 22 -6 22 -4 0 -5 8 -2 19 3 10 0 22 -7
26 -8 5 -8 10 1 21 9 11 9 14 0 14 -7 0 -9 5 -6 10 3 5 3 16 -2 23 -4 6 -8 19
-8 27 0 8 -4 21 -9 29 -7 10 -6 12 4 6 9 -5 11 -4 6 4 -5 7 -10 27 -13 44 -3
18 -9 40 -14 50 -7 12 -6 17 3 17 8 0 9 3 3 8 -5 4 -12 18 -14 32 -1 14 -8 28
-14 32 -7 4 -7 11 2 22 10 12 10 16 2 16 -7 0 -9 5 -6 10 3 6 1 10 -4 10 -6 0
-11 5 -11 11 0 5 6 7 13 3 8 -6 8 -3 -1 9 -8 9 -11 21 -7 27 3 5 1 10 -6 10
-8 0 -8 4 1 16 11 12 11 15 -1 12 -9 -2 -13 4 -11 20 2 13 -2 22 -10 22 -9 0
-9 3 2 10 12 8 12 10 1 10 -8 0 -11 3 -8 7 4 3 1 13 -6 21 -10 13 -9 14 3 7
13 -8 13 -7 1 8 -7 9 -10 17 -5 17 4 0 3 5 -3 11 -6 6 -9 18 -6 25 3 8 0 14
-5 14 -6 0 -9 9 -7 20 2 11 -2 20 -8 20 -7 0 -6 4 3 10 12 7 12 10 1 10 -7 0
-11 6 -7 15 3 8 1 15 -5 15 -5 0 -9 6 -8 13 3 16 -11 79 -21 92 -4 6 -8 17 -8
25 -1 20 -8 49 -21 83 -6 15 -8 27 -5 27 4 0 2 6 -3 13 -6 6 -13 26 -16 42 -3
17 -11 44 -18 60 -6 17 -13 37 -14 45 -4 28 -10 45 -17 50 -4 3 -8 20 -10 38
-1 18 -6 32 -10 32 -4 0 -7 3 -7 8 1 4 0 9 -1 12 -1 3 -3 13 -5 22 -2 9 -10
31 -18 48 -10 19 -11 28 -4 24 7 -3 5 0 -3 8 -8 7 -16 21 -17 31 -2 9 -4 25
-5 35 -2 9 -9 23 -15 30 -7 7 -13 24 -13 37 0 13 -4 27 -10 30 -5 3 -10 17
-10 31 0 13 -4 24 -8 24 -8 0 -38 89 -34 103 1 4 -3 7 -9 7 -5 0 -7 5 -4 10 3
6 1 10 -4 10 -6 0 -10 3 -9 8 2 12 -14 62 -21 62 -4 0 -7 10 -8 22 -1 11 -6
24 -10 27 -4 3 -10 15 -11 26 -2 11 -7 22 -10 25 -4 3 -9 14 -10 25 -2 11 -8
22 -13 23 -5 2 -7 8 -3 13 3 5 0 9 -5 9 -6 0 -11 5 -11 11 0 5 6 7 13 3 7 -4
6 0 -3 12 -24 30 -40 62 -40 79 0 8 -5 15 -11 15 -5 0 -8 4 -5 9 3 4 -1 17 -9
27 -8 10 -15 27 -15 37 0 10 -4 15 -10 12 -5 -3 -10 2 -10 13 0 10 -10 38 -22
63 -12 24 -21 47 -20 52 1 4 -3 7 -9 7 -5 0 -7 5 -4 10 3 6 1 10 -4 10 -6 0
-10 3 -9 8 2 11 -41 100 -53 108 -6 3 -8 12 -5 20 3 8 1 14 -4 14 -6 0 -10 7
-10 15 0 8 -4 15 -9 15 -8 0 -18 22 -26 60 -2 8 -9 16 -14 18 -6 2 -11 12 -11
23 0 10 -3 19 -8 19 -4 0 -18 25 -32 55 -14 30 -28 55 -32 55 -5 0 -8 7 -8 15
0 8 -5 15 -11 15 -5 0 -8 4 -4 9 3 5 -2 16 -10 24 -8 9 -15 23 -15 31 0 9 -5
16 -11 16 -5 0 -8 4 -5 9 3 5 -1 12 -10 15 -9 3 -14 13 -11 20 3 8 -1 17 -9
20 -8 3 -14 12 -14 21 0 8 -5 15 -11 15 -5 0 -7 5 -4 10 3 6 1 10 -5 10 -6 0
-8 5 -5 10 3 6 1 10 -4 10 -6 0 -11 7 -11 15 0 8 -4 15 -10 15 -5 0 -10 7 -10
15 0 8 -4 15 -9 15 -8 0 -16 19 -19 43 0 5 -11 17 -23 28 -12 10 -18 19 -14
19 4 0 1 8 -8 18 -8 9 -17 24 -19 32 -2 8 -11 21 -21 28 -9 7 -15 18 -12 23 4
5 2 9 -3 9 -5 0 -15 12 -23 28 -8 15 -22 36 -31 46 -10 11 -18 26 -18 33 0 7
-5 13 -11 13 -5 0 -8 4 -5 9 3 5 0 11 -8 14 -8 3 -22 22 -31 41 -10 20 -22 36
-27 36 -5 0 -6 5 -3 10 3 6 1 10 -5 10 -6 0 -8 5 -5 10 3 6 -1 10 -10 10 -9 0
-13 5 -10 10 3 6 2 10 -4 10 -5 0 -12 8 -16 19 -3 10 -17 31 -30 45 -13 14
-22 26 -19 26 3 0 -6 15 -20 33 -14 19 -24 37 -21 40 3 4 2 5 -1 2 -6 -4 -34
19 -34 29 0 13 -48 75 -54 69 -3 -4 -6 1 -6 10 0 10 -4 17 -10 17 -5 0 -10 7
-10 16 0 8 -5 12 -10 9 -5 -3 -10 -1 -10 5 0 13 -59 92 -72 98 -5 2 -8 10 -8
18 0 9 -4 12 -10 9 -5 -3 -10 0 -10 7 0 8 -8 21 -17 29 -10 9 -27 28 -37 43
-20 27 -35 46 -82 99 -13 15 -22 27 -20 27 3 0 -12 18 -32 40 -20 21 -53 57
-74 79 -20 22 -34 42 -30 45 3 3 -2 6 -11 6 -9 0 -17 5 -17 12 0 6 -18 28 -40
49 -22 21 -40 41 -40 45 0 3 -11 15 -25 26 -14 11 -22 25 -18 31 3 7 3 9 -2 5
-4 -4 -16 4 -27 17 -11 14 -25 22 -31 18 -7 -3 -9 -3 -5 1 4 5 -4 19 -17 33
-79 84 -139 143 -147 143 -4 0 -8 7 -8 16 0 8 -4 12 -10 9 -5 -3 -10 2 -10 11
0 10 -3 15 -6 11 -8 -8 -34 18 -34 33 0 6 -4 8 -10 5 -5 -3 -10 1 -10 10 0 9
-3 14 -7 12 -5 -3 -14 1 -21 9 -7 8 -10 14 -5 14 4 0 -2 6 -12 14 -11 8 -23
12 -27 10 -5 -3 -8 0 -8 7 0 13 -38 49 -52 49 -4 0 -8 5 -8 11 0 11 -25 39
-35 39 -3 0 -19 14 -35 30 -16 17 -32 30 -34 30 -3 0 -23 18 -46 41 -22 22
-40 38 -40 34 0 -4 -7 0 -15 9 -8 8 -15 20 -15 26 0 6 -4 9 -9 5 -6 -3 -15 4
-21 15 -6 11 -15 18 -19 15 -5 -3 -11 2 -15 10 -3 8 -17 20 -31 27 -14 6 -25
18 -25 25 0 8 -4 12 -8 9 -5 -3 -14 4 -22 14 -8 10 -18 16 -22 13 -5 -3 -12 4
-15 16 -3 11 -9 19 -13 16 -4 -3 -18 5 -32 18 -13 12 -41 36 -62 52 -22 17
-45 36 -52 43 -7 6 -17 12 -23 12 -6 0 -11 4 -11 8 0 5 -12 14 -26 20 -14 7
-22 17 -19 22 4 6 3 9 -2 8 -9 -3 -56 30 -89 60 -8 7 -14 11 -14 8 0 -6 -28
15 -55 41 -7 7 -15 9 -19 6 -3 -4 -6 -1 -6 5 0 7 -7 12 -15 12 -8 0 -15 7 -15
15 0 14 -12 19 -32 16 -5 0 -8 4 -8 11 0 6 -3 9 -6 6 -3 -3 -16 5 -30 19 -13
13 -29 21 -34 18 -6 -3 -10 1 -10 9 0 9 -7 16 -15 16 -8 0 -15 5 -15 10 0 6
-5 10 -10 10 -9 0 -65 35 -80 50 -5 5 -41 26 -77 45 -13 7 -20 15 -16 18 3 4
0 7 -8 7 -9 0 -24 8 -35 18 -11 9 -26 18 -34 20 -8 2 -17 7 -20 10 -7 10 -88
62 -96 62 -3 0 -17 9 -31 20 -14 11 -29 18 -32 15 -4 -2 -14 5 -21 16 -8 10
-22 19 -32 19 -10 0 -18 5 -18 10 0 6 -7 10 -15 10 -8 0 -15 5 -15 11 0 5 -5
7 -10 4 -6 -3 -13 1 -16 9 -3 9 -9 14 -13 12 -8 -5 -72 30 -66 36 2 2 -5 4
-16 5 -10 1 -31 11 -45 22 -15 12 -31 21 -36 21 -5 0 -16 7 -25 15 -8 8 -19
13 -24 10 -5 -4 -9 -1 -9 4 0 6 -6 11 -14 11 -8 0 -22 7 -30 16 -9 8 -16 13
-16 10 0 -3 -16 3 -35 14 -68 38 -140 74 -155 76 -8 2 -16 8 -18 13 -2 6 -10
11 -17 11 -7 0 -39 14 -70 30 -31 17 -63 30 -71 30 -8 0 -14 5 -14 10 0 6 -12
10 -26 10 -17 0 -23 4 -18 12 5 8 2 9 -9 5 -10 -4 -20 0 -26 11 -6 9 -11 13
-11 8 0 -5 -7 -3 -15 4 -8 6 -19 9 -25 5 -5 -3 -10 -1 -10 4 0 6 -7 11 -15 11
-8 0 -15 6 -15 13 0 8 -4 7 -10 -3 -6 -9 -10 -10 -10 -3 0 10 -28 25 -50 28
-3 0 -23 9 -45 20 -22 10 -47 20 -55 21 -8 2 -16 8 -18 14 -2 5 -8 8 -13 5 -4
-3 -26 3 -47 14 -22 11 -42 17 -46 14 -3 -4 -6 -2 -6 3 0 5 -21 16 -47 23 -27
8 -51 19 -55 25 -5 7 -8 6 -8 -3 0 -13 -2 -12 -12 0 -7 9 -41 24 -75 35 -35
10 -63 22 -63 26 0 5 -5 8 -11 8 -5 0 -7 -6 -3 -12 4 -7 -2 -5 -14 6 -11 10
-32 19 -46 20 -14 0 -26 4 -26 9 0 4 -3 6 -7 5 -5 0 -16 2 -25 5 -10 4 -26 10
-35 14 -10 3 -20 7 -23 8 -88 23 -110 30 -110 35 0 3 -12 7 -27 8 -15 1 -31 6
-36 11 -5 5 -16 7 -23 4 -8 -3 -14 0 -14 6 0 6 -6 8 -14 5 -8 -3 -17 0 -21 5
-3 6 -11 9 -16 6 -5 -4 -9 -2 -9 3 0 6 -9 8 -20 5 -11 -3 -20 -1 -20 5 0 6 -8
9 -17 7 -10 -1 -27 5 -37 14 -16 13 -18 13 -12 1 4 -8 1 -7 -7 3 -8 10 -17 14
-18 8 -3 -5 -20 -4 -44 5 -22 7 -48 14 -57 14 -10 0 -18 5 -18 11 0 8 -4 8
-14 0 -11 -9 -15 -9 -18 0 -2 6 -16 12 -31 12 -15 0 -27 3 -27 7 0 4 -7 11
-16 14 -10 4 -13 2 -8 -6 5 -8 2 -9 -12 -4 -10 5 -25 9 -31 9 -7 0 -13 5 -13
10 0 5 -6 7 -14 4 -7 -3 -19 0 -25 6 -8 8 -11 7 -11 -3 0 -12 -2 -12 -9 -2 -4
8 -11 13 -15 13 -3 -1 -16 1 -29 4 -12 3 -33 7 -47 9 -14 3 -25 5 -25 6 0 2
-34 9 -70 14 -16 3 -30 5 -30 6 0 3 -41 11 -62 12 -13 0 -23 5 -23 10 0 7 -5
6 -13 -1 -9 -7 -17 -7 -24 0 -5 5 -26 11 -46 12 -21 1 -37 4 -37 7 0 3 -15 7
-32 9 -46 4 -73 8 -73 11 0 2 -43 8 -82 11 -18 1 -33 5 -33 8 0 3 -15 7 -33 7
-81 4 -127 10 -127 16 0 3 -11 5 -25 3 -14 -1 -25 1 -25 4 0 4 -16 5 -36 3
-20 -3 -34 -1 -31 4 3 5 -16 10 -41 10 -114 4 -152 8 -152 17 0 5 -7 4 -15 -3
-8 -7 -15 -8 -15 -3 0 5 -22 9 -50 9 -27 -1 -50 1 -50 4 0 3 -29 5 -65 5 -36
0 -65 2 -65 5 0 5 -141 11 -217 10 -20 0 -33 4 -33 12 0 8 -3 9 -8 3 -9 -14
-50 -17 -57 -4 -4 5 -11 6 -17 3 -18 -11 -78 -13 -78 -2 0 5 -6 6 -12 2 -17
-11 -50 -10 -67 1 -10 6 -12 4 -6 -6 6 -11 5 -11 -5 -2 -9 8 -19 9 -32 2 -12
-7 -18 -6 -18 1 0 7 -6 8 -19 1 -10 -6 -21 -7 -25 -4 -8 9 -46 12 -46 4 0 -3
-11 -6 -25 -6 -14 0 -25 4 -25 8 0 4 -9 3 -20 -3 -14 -7 -20 -7 -20 0 0 5 -5
10 -11 10 -5 0 -8 -4 -5 -8 6 -10 -45 -9 -63 2 -9 6 -12 5 -7 -2 7 -12 -41
-11 -61 1 -6 4 -14 3 -17 -1z"/>
</g>
</svg>
